# Blender 5.1.2
# www.blender.org
mtllib room.mtl
o Cube
v 1.000000 0.200000 -1.000000
v 1.000000 -0.000000 -1.000000
v 1.000000 0.200000 1.000000
v 1.000000 0.000000 1.000000
v -1.000000 0.200000 -1.000000
v -1.000000 -0.000000 -1.000000
v -1.000000 0.200000 1.000000
v -1.000000 0.000000 1.000000
v 3.850000 0.200000 -1.000000
v 3.850000 -0.000000 -1.000000
v 3.850000 0.200000 1.000000
v 3.850000 0.000000 1.000000
v -3.850000 0.200000 -1.000000
v -3.850000 -0.000000 -1.000000
v -3.850000 0.200000 1.000000
v -3.850000 0.000000 1.000000
v 4.000000 0.200000 -1.000000
v 4.000000 -0.000000 -1.000000
v 4.000000 0.200000 1.000000
v 4.000000 0.000000 1.000000
v -4.000000 0.200000 -1.000000
v -4.000000 -0.000000 -1.000000
v -4.000000 0.200000 1.000000
v -4.000000 0.000000 1.000000
v 1.000000 0.200000 -2.350000
v 1.000000 -0.000000 -2.350000
v -1.000000 0.200000 -2.350000
v -1.000000 -0.000000 -2.350000
v 3.850000 0.200000 -2.350000
v 3.850000 -0.000000 -2.350000
v -3.850000 0.200000 -2.350000
v -3.850000 -0.000000 -2.350000
v 4.000000 0.200000 -2.350000
v 4.000000 -0.000000 -2.350000
v -4.000000 0.200000 -2.350000
v -4.000000 -0.000000 -2.350000
v 1.000000 0.200000 -2.500000
v 1.000000 -0.000000 -2.500000
v -1.000000 0.200000 -2.500000
v -1.000000 -0.000000 -2.500000
v 3.850000 0.200000 -2.500000
v 3.850000 -0.000000 -2.500000
v -3.850000 0.200000 -2.500000
v -3.850000 -0.000000 -2.500000
v 4.000000 0.200000 -2.500000
v 4.000000 -0.000000 -2.500000
v -4.000000 0.200000 -2.500000
v -4.000000 -0.000000 -2.500000
v 1.000000 0.200000 2.350000
v 1.000000 0.000000 2.350000
v -1.000000 0.200000 2.350000
v -1.000000 0.000000 2.350000
v 3.850000 0.200000 2.350000
v 3.850000 0.000000 2.350000
v -3.850000 0.200000 2.350000
v -3.850000 0.000000 2.350000
v 4.000000 0.200000 2.350000
v 4.000000 0.000000 2.350000
v -4.000000 0.200000 2.350000
v -4.000000 0.000000 2.350000
v 1.000000 0.200000 2.500000
v 1.000000 0.000000 2.500000
v -1.000000 0.200000 2.500000
v -1.000000 0.000000 2.500000
v 3.850000 0.200000 2.500000
v 3.850000 0.000000 2.500000
v -3.850000 0.200000 2.500000
v -3.850000 0.000000 2.500000
v 4.000000 0.200000 2.500000
v 4.000000 0.000000 2.500000
v -4.000000 0.200000 2.500000
v -4.000000 0.000000 2.500000
v -4.000000 2.400000 -2.350000
v -4.000000 2.400000 -2.500000
v 1.000000 2.400000 -2.350000
v 3.850000 2.400000 -2.350000
v -1.000000 2.400000 -2.350000
v -3.850000 2.400000 -2.350000
v 4.000000 2.400000 -2.350000
v 1.000000 2.400000 -2.500000
v 3.850000 2.400000 -2.500000
v -1.000000 2.400000 -2.500000
v -3.850000 2.400000 -2.500000
v 4.000000 2.400000 -2.500000
v -4.000000 2.700000 -2.350000
v -4.000000 2.700000 -2.500000
v 1.000000 2.700000 -2.350000
v 3.850000 2.700000 -2.350000
v -1.000000 2.700000 -2.350000
v -3.850000 2.700000 -2.350000
v 4.000000 2.700000 -2.350000
v 1.000000 2.700000 -2.500000
v 3.850000 2.700000 -2.500000
v -1.000000 2.700000 -2.500000
v -3.850000 2.700000 -2.500000
v 4.000000 2.700000 -2.500000
v 0.500000 2.400000 -2.350000
v 0.500000 2.400000 -2.500000
v 0.500000 2.700000 -2.350000
v 0.500000 2.700000 -2.500000
v -0.500000 2.400000 -2.500000
v -0.500000 2.400000 -2.350000
v -0.500000 2.700000 -2.350000
v -0.500000 2.700000 -2.500000
v 1.000000 0.200000 -2.350000
v 1.000000 0.200000 -2.500000
v 0.500000 0.200000 -2.350000
v 0.500000 0.200000 -2.500000
v -1.000000 0.200000 -2.500000
v -1.000000 0.200000 -2.350000
v -0.500000 0.200000 -2.500000
v -0.500000 0.200000 -2.350000
v 0.500000 2.400000 -2.500000
v 0.500000 2.400000 -2.350000
v 0.500000 2.700000 -2.350000
v 0.500000 2.700000 -2.500000
v 3.850000 2.700000 -1.000000
v 3.850000 2.700000 1.000000
v -3.850000 2.700000 1.000000
v -3.850000 2.700000 -1.000000
v 4.000000 2.700000 -1.000000
v 4.000000 2.700000 1.000000
v -4.000000 2.700000 1.000000
v -4.000000 2.700000 -1.000000
v 4.000000 2.700000 -2.350000
v 3.850000 2.700000 -2.350000
v -4.000000 2.700000 -2.350000
v -3.850000 2.700000 -2.350000
v 3.850000 2.700000 2.500000
v 3.850000 2.700000 2.350000
v 1.000000 2.700000 2.350000
v 1.000000 2.700000 2.500000
v -1.000000 2.700000 2.350000
v -1.000000 2.700000 2.500000
v -3.850000 2.700000 2.350000
v -3.850000 2.700000 2.500000
v 4.000000 2.700000 2.350000
v -4.000000 2.700000 2.350000
v 4.000000 2.700000 2.500000
v -4.000000 2.700000 2.500000
vn -0.0000 1.0000 -0.0000
vn -0.0000 -1.0000 -0.0000
vn -1.0000 -0.0000 -0.0000
vn 1.0000 -0.0000 -0.0000
vn -0.0000 -0.0000 -1.0000
vn -0.0000 -0.0000 1.0000
vt 0.000000 0.629870
vt 0.000000 0.370130
vt 0.172341 0.370130
vt 0.172341 0.629870
vt 0.000000 0.370130
vt 0.000000 0.000000
vt 0.116330 0.000000
vt 0.116330 0.370130
vt 0.125000 0.500000
vt 0.125000 0.750000
vt 0.375000 0.500000
vt 0.375000 0.750000
vt 0.625000 0.000000
vt 0.375000 0.000000
vt 0.625000 0.500000
vt 0.375000 0.250000
vt 0.625000 0.250000
vt 0.172341 1.000000
vt 0.000000 1.000000
vt 0.875000 0.500000
vt -0.000000 -0.000000
vt 0.172341 0.000000
vt 0.116330 0.370130
vt 0.116330 0.629870
vt 0.000000 0.629870
vt 0.000000 0.370130
vt 0.000000 0.629870
vt 0.116330 0.629870
vt 0.625000 0.750000
vt 0.625000 1.000000
vt 0.116330 1.000000
vt -0.000000 1.000000
vt 0.000058 0.000058
vt 0.332839 0.000058
vt 0.332839 0.999942
vt 0.000058 0.999942
vt 0.000000 0.000000
vt 0.493068 0.999930
vt 0.000070 0.999930
vt 0.000070 0.000070
vt 0.493068 0.000070
vt 0.116330 1.000000
vt 0.493068 0.999930
vt 0.000070 0.999930
vt 0.000070 0.000070
vt 0.493068 0.000070
vt 0.375000 1.000000
vt 0.540637 0.000074
vt 0.540637 0.999926
vt 0.000074 0.999926
vt 0.000074 0.000074
vt 0.475766 -0.000000
vt 0.475766 1.000000
vt 0.000000 1.000000
vt 0.000000 -0.000000
vt 0.475770 0.000069
vt 0.475770 0.999931
vt 0.000069 0.999931
vt 0.000069 0.000069
vt 0.875000 0.750000
vt 0.000058 0.000058
vt 0.332839 0.000058
vt 0.332839 0.999942
vt 0.000058 0.999942
vt 0.000058 0.000058
vt 0.332839 0.000058
vt 0.332839 0.999942
vt 0.000058 0.999942
vt 0.493068 0.999930
vt 0.000070 0.999930
vt 0.000070 0.000070
vt 0.493068 0.000070
vt 0.000058 0.000058
vt 0.332839 0.000058
vt 0.332839 0.999942
vt 0.540637 0.000073
vt 0.000074 0.999926
vt 0.000074 0.000074
s 1
usemtl Material.001
f 6/9/2 8/10/2 16/10/2 14/9/2
f 6/9/2 2/11/2 4/12/2 8/10/2
f 23/13/3 24/14/3 60/14/3 59/13/3
f 17/15/4 18/11/4 34/11/4 33/15/4
f 12/12/2 10/11/2 18/11/2 20/12/2
f 22/16/3 21/17/3 35/17/3 36/16/3
f 4/12/2 2/11/2 10/11/2 12/12/2
f 31/20/5 35/20/5 127/20/5 128/20/5
f 18/11/4 17/15/4 19/29/4 20/12/4
f 12/12/2 20/12/2 58/12/2 54/12/2
f 59/13/3 71/13/3 140/13/3 138/13/3
f 14/9/2 22/9/2 36/9/2 32/9/2
f 24/14/3 23/13/3 21/17/3 22/16/3
f 14/9/2 16/10/2 24/10/2 22/9/2
f 63/30/6 61/29/6 132/29/6 134/30/6
f 4/12/2 12/12/2 54/12/2 50/12/2
f 26/11/2 28/9/2 40/9/2 38/11/2
f 33/15/4 34/11/4 46/11/4 45/15/4
f 27/20/1 25/15/1 37/15/1 39/20/1
f 36/16/3 35/17/3 47/17/3 48/16/3
f 30/11/2 26/11/2 38/11/2 42/11/2
f 2/11/2 6/9/2 28/9/2 26/11/2
f 6/9/2 14/9/2 32/9/2 28/9/2
f 18/11/2 10/11/2 30/11/2 34/11/2
f 10/11/2 2/11/2 26/11/2 30/11/2
f 40/16/5 39/17/5 37/15/5 38/11/5
f 38/11/5 37/15/5 41/15/5 42/11/5
f 43/17/5 44/16/5 48/16/5 47/17/5
f 39/17/5 40/16/5 44/16/5 43/17/5
f 42/11/5 41/15/5 45/15/5 46/11/5
f 32/9/2 36/9/2 48/9/2 44/9/2
f 34/11/2 30/11/2 42/11/2 46/11/2
f 28/9/2 32/9/2 44/9/2 40/9/2
f 43/17/5 47/17/5 74/17/5 83/17/5
f 35/20/6 31/20/6 78/20/6 73/20/6
f 27/20/4 39/20/4 82/20/4 77/20/4
f 37/15/3 25/15/3 75/15/3 80/15/3
f 58/12/4 57/29/4 69/29/4 70/12/4
f 52/10/2 50/12/2 62/12/2 64/10/2
f 59/13/3 60/14/3 72/14/3 71/13/3
f 67/30/6 63/30/6 134/30/6 136/30/6
f 23/13/3 59/13/3 138/13/3 123/13/3
f 16/10/2 8/10/2 52/10/2 56/10/2
f 24/10/2 16/10/2 56/10/2 60/10/2
f 8/10/2 4/12/2 50/12/2 52/10/2
f 20/12/4 19/29/4 57/29/4 58/12/4
f 62/12/6 61/29/6 63/30/6 64/47/6
f 61/29/6 62/12/6 66/12/6 65/29/6
f 64/47/6 63/30/6 67/30/6 68/47/6
f 65/29/6 66/12/6 70/12/6 69/29/6
f 68/47/6 67/30/6 71/30/6 72/47/6
f 60/10/2 56/10/2 68/10/2 72/10/2
f 54/12/2 58/12/2 70/12/2 66/12/2
f 56/10/2 52/10/2 64/10/2 68/10/2
f 71/30/6 67/30/6 136/30/6 140/30/6
f 50/12/2 54/12/2 66/12/2 62/12/2
f 33/15/5 29/15/5 126/15/5 125/15/5
f 76/15/6 79/15/6 91/15/6 88/15/6
f 82/17/5 83/17/5 95/17/5 94/17/5
f 29/15/6 33/15/6 79/15/6 76/15/6
f 41/15/5 37/15/5 80/15/5 81/15/5
f 45/15/5 41/15/5 81/15/5 84/15/5
f 47/17/3 35/17/3 73/17/3 74/17/3
f 33/15/4 45/15/4 84/15/4 79/15/4
f 39/17/5 43/17/5 83/17/5 82/17/5
f 85/20/1 90/20/1 95/20/1 86/20/1
f 87/15/1 88/15/1 93/15/1 92/15/1
f 88/15/1 91/15/1 96/15/1 93/15/1
f 90/20/1 89/20/1 94/20/1 95/20/1
f 94/20/1 89/20/1 103/20/1 104/20/1
f 74/17/3 73/17/3 85/17/3 86/17/3
f 84/15/5 81/15/5 93/15/5 96/15/5
f 73/20/6 78/20/6 90/20/6 85/20/6
f 79/15/4 84/15/4 96/15/4 91/15/4
f 83/17/5 74/17/5 86/17/5 95/17/5
f 81/15/5 80/15/5 92/15/5 93/15/5
f 98/15/3 97/15/3 99/15/3 100/15/3
f 92/15/5 80/15/5 98/15/5 100/15/5
f 87/15/1 92/15/1 100/15/1 99/15/1
f 98/15/5 80/15/5 106/15/5 108/15/5
f 104/20/1 103/20/1 115/20/1 116/20/1
f 82/17/5 101/17/5 111/17/5 109/17/5
f 82/17/5 94/17/5 104/17/5 101/17/5
f 106/15/2 105/15/2 107/15/2 108/15/2
f 97/15/3 98/15/3 108/15/3 107/15/3
f 80/15/4 75/15/4 105/15/4 106/15/4
f 110/20/2 109/20/2 111/20/2 112/20/2
f 101/20/4 102/20/4 112/20/4 111/20/4
f 77/20/3 82/20/3 109/20/3 110/20/3
f 114/20/4 113/20/4 116/20/4 115/20/4
f 102/20/2 101/20/2 113/20/2 114/20/2
f 101/17/5 104/17/5 116/17/5 113/17/5
f 124/20/1 120/20/1 128/20/1 127/20/1
f 117/15/1 118/29/1 122/29/1 121/15/1
f 119/60/1 120/20/1 124/20/1 123/60/1
f 117/15/1 121/15/1 125/15/1 126/15/1
f 130/29/1 131/29/1 132/29/1 129/29/1
f 133/60/1 135/60/1 136/60/1 134/60/1
f 122/29/1 118/29/1 130/29/1 137/29/1
f 119/60/1 123/60/1 138/60/1 135/60/1
f 135/60/1 138/60/1 140/60/1 136/60/1
f 137/29/1 130/29/1 129/29/1 139/29/1
f 131/29/1 133/60/1 134/60/1 132/29/1
f 19/29/4 17/15/4 121/15/4 122/29/4
f 35/17/3 21/17/3 124/17/3 127/17/3
f 57/29/4 19/29/4 122/29/4 137/29/4
f 21/17/3 23/13/3 123/13/3 124/17/3
f 65/29/6 69/29/6 139/29/6 129/29/6
f 69/29/4 57/29/4 137/29/4 139/29/4
f 61/29/6 65/29/6 129/29/6 132/29/6
f 17/15/4 33/15/4 125/15/4 121/15/4
usemtl Material.002
f 29/33/3 9/34/3 117/35/3 126/36/3
f 9/38/3 11/39/3 118/40/3 117/41/3
f 49/43/5 51/44/5 133/45/5 131/46/5
f 51/48/5 55/49/5 135/50/5 133/51/5
f 25/52/6 29/53/6 76/54/6 75/55/6
f 31/56/6 27/57/6 77/58/6 78/59/6
f 55/61/4 15/62/4 119/63/4 135/64/4
f 13/65/4 31/66/4 128/67/4 120/68/4
f 15/69/4 13/70/4 120/71/4 119/72/4
f 11/73/3 53/74/3 130/75/3 118/36/3
f 53/76/5 49/49/5 131/77/5 130/78/5
usemtl Material.003
f 1/1/1 5/2/1 7/3/1 3/4/1
f 7/5/1 15/6/1 55/7/1 51/8/1
f 1/1/1 3/4/1 11/18/1 9/19/1
f 7/3/1 5/2/1 13/21/1 15/22/1
f 5/23/1 1/24/1 25/25/1 27/26/1
f 3/27/1 7/5/1 51/8/1 49/28/1
f 1/24/1 9/31/1 29/32/1 25/25/1
f 13/7/1 5/23/1 27/26/1 31/37/1
f 11/32/1 3/27/1 49/28/1 53/42/1
usemtl Material.005
f 75/15/6 87/15/6 99/15/6 97/15/6
f 78/20/6 77/20/6 89/20/6 90/20/6
f 75/15/6 76/15/6 88/15/6 87/15/6
f 89/20/6 77/20/6 102/20/6 103/20/6
f 75/15/6 97/15/6 107/15/6 105/15/6
f 102/20/6 77/20/6 110/20/6 112/20/6
f 103/20/6 102/20/6 114/20/6 115/20/6
